<?xml version="1.0" encoding="UTF-8" standalone="no"?>
<svg
   version="1.1"
   x="0px"
   y="0px"
   viewBox="0 0 74 74.5"
   xml:space="preserve"
   id="svg8"
   sodipodi:docname="noun-denis-1324775.svg"
   width="74"
   height="74.5"
   inkscape:version="1.2.2 (b0a8486541, 2022-12-01)"
   xmlns:inkscape="http://www.inkscape.org/namespaces/inkscape"
   xmlns:sodipodi="http://sodipodi.sourceforge.net/DTD/sodipodi-0.dtd"
   xmlns="http://www.w3.org/2000/svg"
   xmlns:svg="http://www.w3.org/2000/svg"><defs
     id="defs12" /><sodipodi:namedview
     id="namedview10"
     pagecolor="#ffffff"
     bordercolor="#666666"
     borderopacity="1.0"
     inkscape:showpageshadow="2"
     inkscape:pageopacity="0.0"
     inkscape:pagecheckerboard="0"
     inkscape:deskcolor="#d1d1d1"
     showgrid="false"
     inkscape:zoom="1.888"
     inkscape:cx="36.54661"
     inkscape:cy="49.788136"
     inkscape:window-width="1920"
     inkscape:window-height="1003"
     inkscape:window-x="1080"
     inkscape:window-y="1080"
     inkscape:window-maximized="1"
     inkscape:current-layer="svg8" /><path
     d="M 74,74.5 H 0 c 3.7,-12.9 14.8,-13 14.8,-13 0,0 14,1.1 15.4,-1.6 1.1,-2 0.5,-6.7 0.2,-9 -3.9,-2 -6.3,-6.2 -9,-13.2 -2.5,-1 -4.3,-3.4 -4.3,-6.2 v -4.6 c 0,-2.4 1.3,-4.4 3.1,-5.6 0.2,-2.7 0.4,-4.7 0.4,-4.7 0,-9.1 7.3,-16.4 16.3,-16.6 9,0.2 16.3,7.6 16.3,16.6 0,0 0.2,2 0.4,4.7 1.9,1.1 3.1,3.2 3.1,5.6 v 4.6 c 0,2.8 -1.8,5.2 -4.3,6.2 -2.6,7 -5,11.2 -9,13.2 -0.3,2.2 -0.9,7 0.2,9 1.4,2.6 15.4,1.6 15.4,1.6 0,0 11.4,0.1 15,13 z"
     id="path2" /></svg>
