<?xml version="1.0" encoding="UTF-8" standalone="no"?>
<svg
   version="1.1"
   x="0px"
   y="0px"
   viewBox="0 0 74.099998 81.099998"
   xml:space="preserve"
   id="svg8"
   sodipodi:docname="noun-branko-1324778.svg"
   width="74.099998"
   height="81.099998"
   inkscape:version="1.2.2 (b0a8486541, 2022-12-01)"
   xmlns:inkscape="http://www.inkscape.org/namespaces/inkscape"
   xmlns:sodipodi="http://sodipodi.sourceforge.net/DTD/sodipodi-0.dtd"
   xmlns="http://www.w3.org/2000/svg"
   xmlns:svg="http://www.w3.org/2000/svg"><defs
     id="defs12" /><sodipodi:namedview
     id="namedview10"
     pagecolor="#ffffff"
     bordercolor="#666666"
     borderopacity="1.0"
     inkscape:showpageshadow="2"
     inkscape:pageopacity="0.0"
     inkscape:pagecheckerboard="0"
     inkscape:deskcolor="#d1d1d1"
     showgrid="false"
     inkscape:zoom="1.888"
     inkscape:cx="37.076271"
     inkscape:cy="52.966102"
     inkscape:window-width="1920"
     inkscape:window-height="1003"
     inkscape:window-x="1080"
     inkscape:window-y="1080"
     inkscape:window-maximized="1"
     inkscape:current-layer="svg8" /><path
     d="m 59,68.3 c 0,0 -14,1.1 -15.4,-1.6 -1.1,-2 -0.5,-6.7 -0.2,-9 3.9,-2 6.4,-6.2 9,-13.2 2.5,-1 4.3,-3.4 4.3,-6.2 v -4.6 c 0,-2.4 -1.3,-4.4 -3.1,-5.6 0,-0.3 0,-0.5 -0.1,-0.8 0.6,0.3 1.3,0.4 2.1,0.4 5.3,0 6.2,-6.8 2.8,-9.2 0.1,-2.1 -0.9,-4.3 -3.1,-5.1 1,-2.6 0,-6.1 -3.1,-6.9 C 52.1,4.1 50.5,1.8 47.4,1.8 45.9,1.8 44.7,2.4 43.9,3.2 43.3,1.4 41.8,0 39.4,0 38,0 36.9,0.5 36.1,1.2 35.4,0.7 34.5,0.5 33.4,0.5 31.5,0.5 30.2,1.4 29.4,2.6 28.9,2.4 28.3,2.3 27.7,2.3 h -1 c -1.3,0 -2.6,0.6 -3.5,1.5 -0.8,0.8 -1.3,1.9 -1.5,3 -3.4,0.1 -4.9,3.2 -4.5,5.9 -2.1,1.2 -2.8,3.9 -2.1,6.1 -0.3,0.1 -0.7,0.2 -0.9,0.4 -1.1,0.7 -2,1.7 -2.3,3 -0.3,1.3 -0.3,2.8 0.5,3.9 0.2,0.2 0.3,0.5 0.5,0.7 0.8,1.1 1.7,1.9 3,2.3 0.9,0.3 2.1,0.2 3,-0.1 -1,1.2 -1.8,2.8 -1.8,4.5 v 4.6 c 0,2.8 1.8,5.2 4.3,6.2 2.6,7 5,11.2 9,13.2 0.3,2.2 0.9,7 -0.2,9 -1.4,2.6 -15.4,1.6 -15.4,1.6 0,0 -11.1,0 -14.8,13 H 74.1 C 70.1,68.3 59,68.3 59,68.3 Z"
     id="path2" /></svg>
