<?xml version="1.0" encoding="UTF-8" standalone="no"?>
<svg
   version="1.1"
   x="0px"
   y="0px"
   viewBox="0 0 74 83.099998"
   xml:space="preserve"
   id="svg309"
   sodipodi:docname="noun-dejan-1324779.svg"
   width="74"
   height="83.099998"
   inkscape:version="1.2.2 (b0a8486541, 2022-12-01)"
   xmlns:inkscape="http://www.inkscape.org/namespaces/inkscape"
   xmlns:sodipodi="http://sodipodi.sourceforge.net/DTD/sodipodi-0.dtd"
   xmlns="http://www.w3.org/2000/svg"
   xmlns:svg="http://www.w3.org/2000/svg"><defs
     id="defs313" /><sodipodi:namedview
     id="namedview311"
     pagecolor="#ffffff"
     bordercolor="#666666"
     borderopacity="1.0"
     inkscape:showpageshadow="2"
     inkscape:pageopacity="0.0"
     inkscape:pagecheckerboard="0"
     inkscape:deskcolor="#d1d1d1"
     showgrid="false"
     inkscape:zoom="1.888"
     inkscape:cx="36.54661"
     inkscape:cy="54.025424"
     inkscape:window-width="1920"
     inkscape:window-height="1003"
     inkscape:window-x="1080"
     inkscape:window-y="1080"
     inkscape:window-maximized="1"
     inkscape:current-layer="svg309" /><path
     d="M 74,83.1 H 0 c 3.7,-12.9 14.8,-13 14.8,-13 0,0 14,1.1 15.4,-1.6 1.1,-2 0.5,-6.7 0.2,-9 -3.9,-2 -6.3,-6.2 -9,-13.2 -2.5,-1 -4.3,-3.4 -4.3,-6.2 v -4.6 c 0,-2.4 1.3,-4.4 3.1,-5.6 0.2,-2.7 0.4,-4.7 0.4,-4.7 0,-9.1 7.3,-16.4 16.3,-16.6 9,0.2 16.3,7.6 16.3,16.6 0,0 0.2,2 0.4,4.7 1.9,1.1 3.1,3.2 3.1,5.6 v 4.6 c 0,2.8 -1.8,5.2 -4.3,6.2 -2.6,7 -5,11.2 -9,13.2 -0.3,2.2 -0.9,7 0.2,9 1.4,2.6 15.4,1.6 15.4,1.6 0,0 11.4,0 15,13 z"
     id="path299" /><path
     d="m 37.4,0 v 0 c 0,0.1 -0.1,0.1 0,0 -0.1,0 0,0 0,0 z"
     id="path301" /><path
     d="M 53.5,32.4 53,32.3 49,31.4 c 0.5,-2.5 1,-4.5 1.4,-6.1 L 49,25 c 0.4,-1.9 0.7,-3.6 1.1,-4.9 l -2.8,-0.6 c 0.2,-1.1 0.4,-2.1 0.6,-3.1 L 44,15.5 c 0,-0.1 0,-0.2 0,-0.2 l -0.4,-0.1 -3.9,-0.9 c 0,-0.2 0.1,-0.4 0.1,-0.5 l -2.6,-0.6 -2.7,0.6 c 0,0.2 0.1,0.3 0.1,0.5 l -3.9,0.9 -0.4,0.1 c 0,0.1 0,0.1 0,0.2 l -3.9,0.9 c 0.2,0.9 0.4,1.9 0.6,3.1 l -2.8,0.6 c 0.4,1.3 0.7,3 1.1,4.9 l -1.4,0.3 c 0.5,1.6 0.9,3.6 1.4,6.1 l -3.9,0.9 -0.6,0.1 c 0,0 -3.2,-8.8 -1.5,-11.9 -0.7,-3.2 -0.9,-6.8 1.2,-7.4 0,0 0.1,0 0.3,0 -0.3,-2.6 -0.2,-5 1.5,-5.5 0,0 0.7,-0.3 1.8,1.4 -0.3,-2.5 -0.1,-4.9 1.5,-5.4 0,0 1.2,-0.6 2.7,3.4 -0.2,-2.2 0.1,-4.2 1.6,-4.6 0,0 0.7,-0.3 1.7,1.3 0.1,-1.3 0.6,-2.3 1.6,-2.6 0,0 0.9,-0.4 2.2,2.2 0.3,-1.6 0.9,-2.9 1.9,-3.2 h 0.1 0.1 c 1,0.3 1.6,1.6 1.9,3.2 1.3,-2.7 2.2,-2.2 2.2,-2.2 1,0.3 1.4,1.3 1.6,2.6 1,-1.6 1.7,-1.3 1.7,-1.3 1.4,0.4 1.8,2.3 1.6,4.6 1.5,-3.9 2.7,-3.4 2.7,-3.4 1.6,0.5 1.8,2.8 1.5,5.4 1,-1.8 1.8,-1.4 1.8,-1.4 1.7,0.5 1.8,2.9 1.5,5.5 0.2,0 0.3,0 0.3,0 2,0.6 1.8,4.2 1.2,7.4 1.3,3 -2,11.9 -2,11.9 z"
     id="path303" /></svg>
