<?xml version="1.0" encoding="UTF-8" standalone="no"?>
<svg
   data-name="Layer 1"
   viewBox="0 0 74.099998 76.839836"
   x="0px"
   y="0px"
   version="1.1"
   id="svg12"
   sodipodi:docname="noun-edward-1509326.svg"
   width="74.099998"
   height="76.839836"
   inkscape:version="1.2.2 (b0a8486541, 2022-12-01)"
   xmlns:inkscape="http://www.inkscape.org/namespaces/inkscape"
   xmlns:sodipodi="http://sodipodi.sourceforge.net/DTD/sodipodi-0.dtd"
   xmlns="http://www.w3.org/2000/svg"
   xmlns:svg="http://www.w3.org/2000/svg"
   xmlns:rdf="http://www.w3.org/1999/02/22-rdf-syntax-ns#"
   xmlns:cc="http://creativecommons.org/ns#"
   xmlns:dc="http://purl.org/dc/elements/1.1/">
  <defs
     id="defs16" />
  <sodipodi:namedview
     id="namedview14"
     pagecolor="#ffffff"
     bordercolor="#666666"
     borderopacity="1.0"
     inkscape:showpageshadow="2"
     inkscape:pageopacity="0.0"
     inkscape:pagecheckerboard="0"
     inkscape:deskcolor="#d1d1d1"
     showgrid="false"
     inkscape:zoom="1.888"
     inkscape:cx="36.54661"
     inkscape:cy="51.377119"
     inkscape:window-width="1920"
     inkscape:window-height="1003"
     inkscape:window-x="1080"
     inkscape:window-y="1080"
     inkscape:window-maximized="1"
     inkscape:current-layer="svg12" />
  <title
     id="title2">e-create_profile_Artboard 67</title>
  <path
     d="m 59.1,63.839834 c 0,0 -14,1.1 -15.4,-1.6 -1.1,-2 -0.5,-6.7 -0.2,-9 3.9,-2 6.4,-6.2 9,-13.2 a 6.74,6.74 0 0 0 4.3,-6.2 v -4.6 a 6.56,6.56 0 0 0 -2,-4.7 H 19.1 a 6.56,6.56 0 0 0 -2,4.7 v 4.6 a 6.74,6.74 0 0 0 4.3,6.2 c 2.6,7 5,11.2 9,13.2 0.3,2.2 0.9,7 -0.2,9 -1.4,2.6 -15.4,1.6 -15.4,1.6 0,0 -11.1,0 -14.8,13 h 74.1 c -3.7,-13 -15,-13 -15,-13 z"
     id="path4" />
  <path
     d="m 55.2,18.939834 10.6,10.9 c 0,0 -10.9,-5.9 -11.33,-6.2 H 19.21 a 7.4,7.4 0 0 1 0.89,-0.7 c 0.2,-2.7 0.4,-4.7 0.4,-4.7 A 16.59,16.59 0 0 1 33.3,2.0898339 v 0 c 4.3,-1.36000002 10.72,-2.41000002 20.16,-2.00000002 11.52,0.45 8,1.78000002 1.59,3.00000002 a 18.7,18.7 0 0 1 7.55,6.05 c 1.1,1.2000001 -10.6,-3.6 -10.6,-3.6 0,0 10.7,8.5000001 11.7,9.7000001 1,1.2 -7.92,-2.18 -8.47,-2.38 0.56,0.5 9.5,8.52 10.57,9.68 1.07,1.16 -10.6,-3.6 -10.6,-3.6 z"
     id="path6" />
  <metadata
     id="metadata245">
    <rdf:RDF>
      <cc:Work
         rdf:about="">
        <dc:title>e-create_profile_Artboard 67</dc:title>
      </cc:Work>
    </rdf:RDF>
  </metadata>
</svg>
