<?xml version="1.0" encoding="UTF-8" standalone="no"?>
<svg
   data-name="Layer 1"
   viewBox="0 0 73.43 74.5"
   x="0px"
   y="0px"
   version="1.1"
   id="svg12"
   sodipodi:docname="noun-finn-1509327.svg"
   width="73.43"
   height="74.5"
   inkscape:version="1.2.2 (b0a8486541, 2022-12-01)"
   xmlns:inkscape="http://www.inkscape.org/namespaces/inkscape"
   xmlns:sodipodi="http://sodipodi.sourceforge.net/DTD/sodipodi-0.dtd"
   xmlns="http://www.w3.org/2000/svg"
   xmlns:svg="http://www.w3.org/2000/svg"
   xmlns:rdf="http://www.w3.org/1999/02/22-rdf-syntax-ns#"
   xmlns:cc="http://creativecommons.org/ns#"
   xmlns:dc="http://purl.org/dc/elements/1.1/">
  <defs
     id="defs16" />
  <sodipodi:namedview
     id="namedview14"
     pagecolor="#ffffff"
     bordercolor="#666666"
     borderopacity="1.0"
     inkscape:showpageshadow="2"
     inkscape:pageopacity="0.0"
     inkscape:pagecheckerboard="0"
     inkscape:deskcolor="#d1d1d1"
     showgrid="false"
     inkscape:zoom="1.888"
     inkscape:cx="36.54661"
     inkscape:cy="49.788136"
     inkscape:window-width="1920"
     inkscape:window-height="1003"
     inkscape:window-x="1080"
     inkscape:window-y="1080"
     inkscape:window-maximized="1"
     inkscape:current-layer="svg12" />
  <title
     id="title2">e-create_profile_Artboard 68</title>
  <path
     d="M 73.43,74.5 H 0 a 20.16,20.16 0 0 1 2.51,-5.31 c 0.15,-0.23 0.31,-0.44 0.47,-0.65 a 15.81,15.81 0 0 1 11.5,-6.24 c 0,0 2.8,0.2 6,0.2 3.81,0 8.16,-0.27 9.26,-1.59 a 1.36,1.36 0 0 0 0.24,-0.31 c 1.1,-2 0.5,-6.8 0.2,-9 v 0 c 0,-0.25 -0.06,-0.49 -0.09,-0.7 -3.9,-2 -6.3,-6.2 -9,-13.2 a 6.82,6.82 0 0 1 -4.18,-5 v 0 c 0,-0.17 0,-0.34 0,-0.52 V 27.6 A 6.46,6.46 0 0 1 18.48,23.37 3.8,3.8 0 0 1 18.81,23 h 35.77 a 6.74,6.74 0 0 1 1.71,2.79 6.74,6.74 0 0 1 0.09,1.11 v 4.6 a 6.74,6.74 0 0 1 -4.3,6.2 c -2.6,7 -5,11.2 -9,13.2 -0.27,2 -0.8,6.18 -0.05,8.41 a 4.37,4.37 0 0 0 0.45,1.39 c 0.8,1.5 5.4,1.8 9.4,1.8 3.2,0 6,-0.2 6,-0.2 0,0 10.64,0 14.55,12.2 z"
     id="path4" />
  <path
     d="M 54.25,22 H 18.48 l -0.3,0.3 a 7,7 0 0 0 -1.5,2.12 c -1.05,0.7 -1.74,1.07 -1.56,0.68 0.39,-0.84 3.21,-5.09 5.15,-8 0,-0.34 0,-0.53 0,-0.53 0,-0.31 0,-0.61 0,-0.92 -2.17,1.65 -5.59,3.97 -5.19,3.15 0.4,-0.82 4.89,-6.86 6.95,-9.61 0.16,-0.34 0.34,-0.67 0.53,-1 -1.94,1.51 -8.59,6.61 -8.08,5.5 0.6,-1.3 2.6,-8.2 15.9,-12.5 A 12.76,12.76 0 0 1 31.68,0.85 16.64,16.64 0 0 1 36.59,0 16.69,16.69 0 0 1 52.88,16.6 c 0,0 0.2,2 0.4,4.7 a 6.13,6.13 0 0 1 0.97,0.7 z"
     id="path6" />
  <metadata
     id="metadata245">
    <rdf:RDF>
      <cc:Work
         rdf:about="">
        <dc:title>e-create_profile_Artboard 68</dc:title>
      </cc:Work>
    </rdf:RDF>
  </metadata>
</svg>
