<?xml version="1.0" encoding="UTF-8" standalone="no"?>
<svg
   data-name="Layer 1"
   viewBox="0 0 74.089996 79.900002"
   x="0px"
   y="0px"
   version="1.1"
   id="svg12"
   sodipodi:docname="noun-forest-1509325.svg"
   width="74.089996"
   height="79.900002"
   inkscape:version="1.2.2 (b0a8486541, 2022-12-01)"
   xmlns:inkscape="http://www.inkscape.org/namespaces/inkscape"
   xmlns:sodipodi="http://sodipodi.sourceforge.net/DTD/sodipodi-0.dtd"
   xmlns="http://www.w3.org/2000/svg"
   xmlns:svg="http://www.w3.org/2000/svg"
   xmlns:rdf="http://www.w3.org/1999/02/22-rdf-syntax-ns#"
   xmlns:cc="http://creativecommons.org/ns#"
   xmlns:dc="http://purl.org/dc/elements/1.1/">
  <defs
     id="defs16" />
  <sodipodi:namedview
     id="namedview14"
     pagecolor="#ffffff"
     bordercolor="#666666"
     borderopacity="1.0"
     inkscape:showpageshadow="2"
     inkscape:pageopacity="0.0"
     inkscape:pagecheckerboard="0"
     inkscape:deskcolor="#d1d1d1"
     showgrid="false"
     inkscape:zoom="1.888"
     inkscape:cx="36.54661"
     inkscape:cy="54.555085"
     inkscape:window-width="1920"
     inkscape:window-height="1003"
     inkscape:window-x="1080"
     inkscape:window-y="1080"
     inkscape:window-maximized="1"
     inkscape:current-layer="svg12" />
  <title
     id="title2">e-create_profile_Artboard 69</title>
  <path
     d="M 73.89,79.3 C 69.89,67 59.09,67 59.09,67 c 0,0 -14,1.1 -15.4,-1.6 a 4.12,4.12 0 0 1 -0.41,-1.17 c -0.5,-2.28 0,-5.85 0.2,-7.78 a 13.13,13.13 0 0 0 4.92,-4.62 c 0.18,-0.28 0.36,-0.56 0.53,-0.85 a 44.52,44.52 0 0 0 3.52,-7.66 v -0.07 a 6.84,6.84 0 0 0 2.1,-1.32 1.74,1.74 0 0 0 0.24,-0.23 h 0.05 a 6.53,6.53 0 0 0 1.91,-4.6 v -4.7 a 6.32,6.32 0 0 0 -0.32,-2 6.85,6.85 0 0 0 -1.66,-2.66 H 19.07 L 19,27.82 a 6.53,6.53 0 0 0 -1.91,4.6 v 4.6 c 0,0.18 0,0.35 0,0.52 v 0 a 6.78,6.78 0 0 0 4.3,5.66 c 2.6,7 5,11.19 9,13.2 v 0 c 0.3,2.2 0.9,7 -0.2,9 a 1.77,1.77 0 0 1 -0.75,0.66 0.2,0.2 0 0 1 -0.08,0 C 25.99,67.75 14.8,66.95 14.8,66.95 a 15.26,15.26 0 0 0 -8,2.82 H 6.72 L 6.36,70.03 6.29,70.09 A 0.63,0.63 0 0 0 6.16,70.2 L 6.07,70.27 A 3.57,3.57 0 0 0 5.69,70.57 18.12,18.12 0 0 0 0.22,79.2 C 0.14,79.43 0.07,79.66 0,79.9 h 74.09 c -0.07,-0.14 -0.14,-0.37 -0.2,-0.6 z"
     id="path4" />
  <path
     d="m 19.54,20.7 c 0,0 -4.3,3.1 -3.2,3.1 a 22.1,22.1 0 0 1 4.06,0.93 l 0.24,0.07 -0.25,0.17 a 9.28,9.28 0 0 0 -2.12,1.76 H 53.63 C 53.44,24.1 53.24,22.1 53.24,22.1 v -0.13 l 2.8,-0.37 a 29,29 0 0 1 -3.08,-2.5 c -0.32,-0.34 -0.42,-0.57 -0.12,-0.57 a 10.86,10.86 0 0 0 3.2,-1 l -3.2,-1 c 0,0 2.2,-1 2.2,-2.1 0,-1.1 -3.4,-2 -3.4,-2 l 1.2,-1.1 h -3.2 l 1.1,-4.1 -5.16,1 H 45.34 V 3 L 43.14,6.1 39.94,2 36.74,4.1 V 0 l -5.4,5.2 -3.2,-2.1 a 26,26 0 0 1 0.46,4.84 c -0.05,0.42 -0.19,0.6 -0.46,0.36 v 0 c -1.15,-1 -5.36,-1 -5.36,-1 l 1.1,4.1 -8.6,2.1 4.8,1.9 -5.9,4.3 z"
     id="path6" />
  <metadata
     id="metadata245">
    <rdf:RDF>
      <cc:Work
         rdf:about="">
        <dc:title>e-create_profile_Artboard 69</dc:title>
      </cc:Work>
    </rdf:RDF>
  </metadata>
</svg>
