<?xml version="1.0" encoding="UTF-8" standalone="no"?>
<svg
   version="1.1"
   x="0px"
   y="0px"
   viewBox="0 0 74 85.629738"
   xml:space="preserve"
   id="svg10"
   sodipodi:docname="noun-miha-1324776.svg"
   width="74"
   height="85.629738"
   inkscape:version="1.2.2 (b0a8486541, 2022-12-01)"
   xmlns:inkscape="http://www.inkscape.org/namespaces/inkscape"
   xmlns:sodipodi="http://sodipodi.sourceforge.net/DTD/sodipodi-0.dtd"
   xmlns="http://www.w3.org/2000/svg"
   xmlns:svg="http://www.w3.org/2000/svg"><defs
     id="defs14" /><sodipodi:namedview
     id="namedview12"
     pagecolor="#ffffff"
     bordercolor="#666666"
     borderopacity="1.0"
     inkscape:showpageshadow="2"
     inkscape:pageopacity="0.0"
     inkscape:pagecheckerboard="0"
     inkscape:deskcolor="#d1d1d1"
     showgrid="false"
     inkscape:zoom="1.888"
     inkscape:cx="36.54661"
     inkscape:cy="55.084746"
     inkscape:window-width="1920"
     inkscape:window-height="1003"
     inkscape:window-x="1080"
     inkscape:window-y="1080"
     inkscape:window-maximized="1"
     inkscape:current-layer="svg10" /><path
     d="M 74,85.629734 H 0 c 3.7,-12.9 14.8,-13 14.8,-13 0,0 14,1.1 15.4,-1.6 1.1,-2 0.5,-6.7 0.2,-9 -3.9,-2 -6.3,-6.2 -9,-13.2 -2.5,-1 -4.3,-3.4 -4.3,-6.2 v -4.6 c 0,-2.4 1.3,-4.4 3.1,-5.6 0.2,-2.7 0.4,-4.7 0.4,-4.7 0,-9.1 7.3,-16.4 16.3,-16.6 9,0.2 16.3,7.6 16.3,16.6 0,0 0.2,2 0.4,4.7 1.9,1.1 3.1,3.2 3.1,5.6 v 4.6 c 0,2.8 -1.8,5.2 -4.3,6.2 -2.6,7 -5,11.2 -9,13.2 -0.3,2.2 -0.9,7 0.2,9 1.4,2.6 15.4,1.6 15.4,1.6 0,0 11.4,0.1 15,13 z"
     id="path2" /><path
     d="m 70.1,17.029734 -0.8,0.3 c -0.9,0.3 -1.3,-0.4 -1.7,-0.9 -0.2,-0.4 -0.9,-0.7 -2,-0.9 -2.6,-0.5 -6.2,-0.2 -8.4,0.2 1.7,0.8 3.7,2.5 6,5 l 3.5,3.9 -4.9,-2.8 c -1.5,-0.9 -4.3,-0.7 -6.3,-0.4 l 4.4,3.5 h -7.4 l -0.3,-0.3 c -3,-3.3 -6.6,-7 -11.7,-8.1 -6.3,-1.4 -11.8,1.7 -16.4,4.9 l -0.6,0.5 -0.6,-0.2 c -3.4,-0.9 -7.8,1.2 -7.8,1.2 l -2.7,1.3 1.2,-2.3 c 0.7,-1.3 2.8,-2.5 4.5,-3.2 -2.8,-0.1 -6.5,1.9 -7.9,2.9 l -2.2,1.5 0.6,-2.3 c 0.7,-2.5 3.9,-4.4 6.4,-5.5 -4,0.2 -9.7,1.5 -12.1,2.1 l -2.4,0.6 1.2,-1.8 c 2.3,-3.3 14.1,-5.2 21.4,-6.1 -2.6,0 -5.9,0.1 -9.4,0.4 l -3.5,0.3 2.8,-1.6999996 c 2.6,-1.6 10,-2 13.2,-2 -2.4,-2.9 -12.8,-3.9 -16.6,-4 H 8.3 l 0.4,-1 c 0.3,-0.7 0.9,-1.3 1.9,-1.6 5.8,-2.2 23.5,3.1 27,4.1 5.9,-2 16.4,-0.7 21.6,0 l 4.6,0.6 -4.1,1 c -1.3,0.3 -2.8,1.1 -3.9,1.9 h 0.1 c 8.6,0 13.6,6.8999996 14.2,8.1999996 z"
     id="path4" /></svg>
